<svg xmlns="http://www.w3.org/2000/svg" version="1.1" xmlns:xlink="http://www.w3.org/1999/xlink" width="1500" height="133" viewBox="0 0 1500 133"><svg xml:space="preserve" width="1500" height="133" data-version="2" data-id="lg_VkeT168xfNXWCmg0Q6" viewBox="0 0 562 133" x="0" y="0"><rect width="100%" height="100%" fill="transparent"></rect><path fill="#3d3d3d" d="M186.985 94.71h-7.56v-63h20.61q7.38 0 12.19 2.48 4.82 2.47 7.11 6.61 2.3 4.14 2.3 9.45 0 5.13-2.3 9.32-2.29 4.18-7.06 6.66-4.77 2.47-12.24 2.47h-13.05zm0-56.7v24.3h12.87q7.56 0 10.8-3.28 3.24-3.29 3.24-8.78 0-5.85-3.24-9.04-3.24-3.2-10.8-3.2zm64.08 57.78q-6.3 0-11.25-2.97t-7.74-8.32q-2.79-5.36-2.79-12.47 0-7.2 2.74-12.51 2.75-5.31 7.74-8.28 5-2.97 11.48-2.97 6.66 0 11.34 2.97t7.15 7.79q2.48 4.81 2.48 10.57v1.89q0 .99-.09 2.25h-37.17v-5.85h29.79q-.27-6.21-4.1-9.72-3.82-3.51-9.58-3.51-3.78 0-7.11 1.76-3.33 1.75-5.31 5.13-1.98 3.37-1.98 8.41v2.52q0 5.58 2.02 9.36 2.03 3.78 5.31 5.67 3.29 1.89 7.07 1.89 4.77 0 7.87-2.11 3.11-2.12 4.55-5.81h7.47q-1.17 4.14-3.87 7.34-2.7 3.19-6.71 5.08-4 1.89-9.31 1.89m56.07-1.08h-7.02q-4.05 0-7.02-1.26-2.97-1.26-4.55-4.27-1.57-3.02-1.57-8.15V55.74h-7.92v-6.39h7.92l.99-10.98h6.57v10.98h13.14v6.39h-13.14v25.29q0 4.23 1.71 5.72 1.71 1.48 6.03 1.48h4.86zm18 0h-7.56v-64.8h7.56V57q2.25-4.05 6.34-6.39 4.1-2.34 8.96-2.34 5.22 0 9.09 2.12 3.87 2.11 5.94 6.43 2.07 4.32 2.07 10.89v27h-7.47V68.52q0-6.84-2.88-10.3-2.88-3.47-8.37-3.47-3.87 0-6.98 1.89-3.1 1.89-4.9 5.4-1.8 3.51-1.8 8.64zm58.95 1.08q-5.49 0-9.18-1.93-3.69-1.94-5.49-5.13-1.8-3.2-1.8-6.98 0-4.59 2.38-7.78 2.39-3.2 6.75-4.86 4.37-1.67 10.31-1.67h11.97q0-4.23-1.31-7.06-1.3-2.84-3.78-4.28-2.47-1.44-6.16-1.44-4.32 0-7.47 2.16-3.15 2.16-3.87 6.39h-7.74q.54-4.86 3.28-8.14 2.75-3.29 6.98-5.04 4.23-1.76 8.82-1.76 6.3 0 10.48 2.3 4.19 2.29 6.26 6.39 2.07 4.09 2.07 9.67v28.08h-6.75l-.45-8.01q-.9 1.89-2.3 3.56-1.39 1.66-3.24 2.88-1.84 1.21-4.27 1.93-2.43.72-5.49.72m1.17-6.39q3.15 0 5.71-1.3 2.57-1.31 4.37-3.6 1.8-2.3 2.74-5.09.95-2.79.95-5.85v-.27h-11.34q-4.41 0-7.11 1.04-2.7 1.03-3.87 2.88-1.17 1.84-1.17 4.18 0 2.43 1.12 4.23 1.13 1.8 3.33 2.79 2.21.99 5.27.99m54.81 5.31h-8.73l-17.19-45.36h7.92l13.68 38.07 13.77-38.07h7.74zm45.54 1.08q-6.3 0-11.25-2.97t-7.74-8.32q-2.79-5.36-2.79-12.47 0-7.2 2.74-12.51 2.75-5.31 7.74-8.28 5-2.97 11.48-2.97 6.66 0 11.34 2.97t7.15 7.79q2.48 4.81 2.48 10.57v1.89q0 .99-.09 2.25h-37.17v-5.85h29.79q-.27-6.21-4.1-9.72-3.82-3.51-9.58-3.51-3.78 0-7.11 1.76-3.33 1.75-5.31 5.13-1.98 3.37-1.98 8.41v2.52q0 5.58 2.02 9.36 2.03 3.78 5.31 5.67 3.29 1.89 7.07 1.89 4.77 0 7.87-2.11 3.11-2.12 4.55-5.81h7.47q-1.17 4.14-3.87 7.34-2.7 3.19-6.71 5.08-4 1.89-9.31 1.89m38.79-1.08h-7.56V49.35h6.84l.36 7.92q2.16-4.23 6.16-6.61 4.01-2.39 9.14-2.39 5.31 0 9.18 2.12 3.87 2.11 6.03 6.39 2.16 4.27 2.16 10.84v27.09h-7.56V68.43q0-6.84-3.02-10.26-3.01-3.42-8.5-3.42-3.78 0-6.75 1.85-2.97 1.84-4.73 5.31-1.75 3.46-1.75 8.59z"></path><path fill="#7d4d27" d="M144.355 27.987c-3.383-1.772-4.19-3.706-5.8-6.928-.967-1.772-1.934-3.383-3.545-4.35-1.772-1.128-5.64-.967-6.928-2.417-1.289-1.611-.161-5.156 0-6.928.322-2.74-.161-5.478-2.74-5.8-.482-.162-.966-.162-1.61.16a7.855 7.855 0 0 0-1.128.484c-5.156 2.578-9.184 7.573-12.89 11.6-6.122 6.607-12.084 13.535-18.69 19.98-5.317 5.155-10.15 9.667-17.884 9.183-10.795-.644-21.268-3.705-31.902-4.028-7.25-.322-15.467.484-21.429 4.995-4.833-5.317-8.54-11.278-9.506-18.529-.483-3.222-5.317-1.933-4.995 1.29 1.128 8.055 5.479 14.822 10.796 20.623C9.82 55.378 10.464 66.817 13.687 76c.805 2.417 1.933 4.995 2.094 7.573.161 3.222-1.128 6.767-2.094 9.828-1.611 4.995-2.9 9.667-2.256 14.823.967 7.734 3.545 21.751 13.212 23.201 3.383.484 7.734-.483 9.184-3.867 1.772-4.028-2.256-9.022-3.545-12.728-1.128-3.223-2.417-7.25-.644-10.312 1.45-2.417 4.511-4.189 6.444-5.961 1.773-1.611 3.545-3.223 4.834-5.317 1.45-2.256 1.45-4.995 2.417-7.25 2.255-4.995 12.245-6.284 17.079-6.445 4.189-.323 8.378.16 12.406 1.127 10.15 2.578 18.367 7.25 19.979 18.046 1.45 9.023 1.289 21.59 7.733 28.84 4.028 4.512 17.401 6.445 16.112-2.739-.322-2.094-1.45-4.028-2.578-5.639-.966-1.45-2.9-2.578-3.705-4.028-2.256-4.028-.806-11.278-.484-15.629.323-3.383.323-7.089 1.45-10.311.967-2.417 2.578-4.512 4.028-6.606 2.417-3.545 3.062-7.09 3.545-11.279.645-5.639.645-11.278 1.128-16.917.322-4.673-.645-11.6 5.8-11.44 2.9 0 5.156 1.934 7.895 2.417 2.256.484 4.834 0 7.09-.644 4.51-1.45 8.217-4.673 8.7-9.668.483-3.866-1.934-5.316-5.156-7.089m-29.646 33.03c-.161 4.35-.322 8.861-1.128 13.212-.805 4.35-3.545 6.928-5.64 10.634-2.577 4.833-2.738 10.311-3.06 15.628-.323 4.512-.806 9.345.16 13.857.645 3.222 2.256 4.35 4.351 6.767 1.933 2.255 4.19 5.317-.483 5.155-2.9-.16-4.673-2.094-5.962-4.511-4.995-9.184-2.9-20.623-6.445-30.13C91.508 77.935 71.851 73.424 58.8 74.713c-4.994.483-9.99 1.611-14.5 4.028-4.35 2.256-5.156 3.545-6.123 8.056-2.417 9.828-15.468 11.762-14.179 23.04.484 4.35 2.095 8.056 3.867 11.923.967 1.933 2.9 4.028-.966 4.834-1.29.322-2.578-.161-3.545-.806-2.095-1.289-3.222-4.35-4.028-6.445-2.095-5.478-3.706-12.084-2.578-17.884.967-4.995 3.545-9.667 4.19-14.823.644-4.673-1.129-8.862-2.74-13.05-2.094-5.801-2.578-12.085-.483-18.046 3.705-10.473 15.306-11.6 24.973-11.118 10.634.645 20.946 3.545 31.58 4.028 6.928.323 11.923-3.06 16.917-7.572 2.256-1.934 4.35-4.028 6.445-6.123 4.028 6.928 10.15 11.6 17.562 14.984-.644 4.028-.322 8.379-.483 11.279m26.585-21.751c-7.412 4.672-16.434-6.123-23.363 1.61-.966.968-1.61 2.256-2.094 3.707-6.284-3.223-11.44-7.412-14.662-13.696 2.9-3.06 5.8-6.283 8.7-9.506 2.9-3.061 5.64-6.283 8.7-9.184 1.29-1.289 2.74-2.9 4.351-4.028v.162c-.161.805-.322 1.61-.322 2.416-.161 1.934-.161 4.028.805 5.8 1.612 3.062 4.995 3.062 7.895 4.35 4.028 1.773 4.028 7.251 7.573 9.99 1.289.967 2.739 1.29 4.028 2.256 1.128.806 1.772.322 1.933 1.933 0 1.45-2.255 3.384-3.544 4.19"></path></svg></svg>